<?xml version="1.0" standalone="no"?>
<!DOCTYPE svg PUBLIC "-//W3C//DTD SVG 20010904//EN"
 "http://www.w3.org/TR/2001/REC-SVG-20010904/DTD/svg10.dtd">
<svg version="1.0" xmlns="http://www.w3.org/2000/svg"
 width="192.000000pt" height="192.000000pt" viewBox="0 0 192.000000 192.000000"
 preserveAspectRatio="xMidYMid meet">
<metadata>
Created by potrace 1.14, written by Peter Selinger 2001-2017
</metadata>
<g transform="translate(0.000000,192.000000) scale(0.100000,-0.100000)"
fill="#000000" stroke="none">
<path d="M433 1843 c-12 -2 -25 -13 -28 -23 -3 -10 -15 -22 -26 -25 -10 -4
-17 -10 -14 -15 3 -5 -3 -18 -15 -30 -11 -11 -20 -26 -20 -34 0 -8 -7 -16 -15
-20 -8 -3 -15 -12 -15 -21 0 -8 -4 -15 -10 -15 -5 0 -10 -9 -10 -19 0 -10 -7
-21 -15 -25 -8 -3 -15 -15 -15 -26 0 -11 -4 -20 -9 -20 -5 0 -12 -18 -16 -40
-4 -22 -11 -40 -16 -40 -5 0 -9 -11 -9 -25 0 -14 -4 -25 -9 -25 -5 0 -12 -22
-16 -50 -4 -27 -11 -50 -16 -50 -5 0 -9 -21 -9 -46 0 -25 -4 -43 -9 -40 -5 4
-10 -62 -11 -159 0 -108 3 -165 10 -165 5 0 10 -20 10 -45 0 -25 4 -45 9 -45
5 0 12 -24 15 -52 4 -29 12 -55 17 -59 6 -3 11 -15 12 -27 0 -11 4 -19 8 -16
4 2 10 -14 14 -36 4 -22 10 -40 15 -40 4 0 10 -10 14 -23 3 -12 14 -32 26 -44
11 -12 20 -27 20 -32 0 -6 11 -21 24 -34 13 -13 27 -33 30 -45 4 -11 16 -24
26 -27 10 -3 22 -15 25 -25 3 -10 15 -22 25 -25 10 -3 22 -15 25 -26 4 -10 10
-19 15 -19 5 0 18 -10 30 -22 11 -12 20 -18 20 -14 0 4 14 -6 31 -23 17 -17
37 -31 45 -31 8 0 14 -4 14 -10 0 -5 9 -10 19 -10 10 0 21 -7 25 -15 3 -8 15
-15 26 -15 11 0 20 -4 20 -10 0 -5 7 -10 15 -10 8 0 15 -4 15 -9 0 -5 18 -12
40 -16 22 -4 40 -11 40 -16 0 -5 11 -9 24 -9 13 0 26 -4 28 -10 2 -5 40 -12
86 -16 45 -4 82 -11 82 -15 0 -5 36 -9 80 -9 44 0 80 4 80 9 0 4 39 11 88 15
48 3 89 11 90 16 2 6 15 10 28 10 13 0 24 4 24 9 0 5 20 12 45 15 25 4 45 11
45 17 0 5 7 9 15 9 8 0 15 4 15 10 0 5 16 12 35 16 21 4 37 13 40 25 4 10 11
20 16 20 5 1 13 2 17 3 17 2 102 95 102 110 0 9 5 16 10 16 6 0 10 14 10 30 0
17 -4 30 -9 30 -5 0 -12 9 -16 19 -3 11 -15 23 -25 26 -10 3 -22 14 -25 25 -3
10 -17 21 -30 24 -14 4 -25 11 -25 16 0 6 -5 10 -11 10 -6 0 -16 6 -24 13 -7
8 -38 14 -68 16 -47 2 -59 -2 -81 -24 -14 -14 -39 -28 -56 -31 -16 -4 -30 -10
-30 -15 0 -5 -11 -9 -24 -9 -13 0 -26 -5 -28 -11 -2 -5 -38 -13 -81 -16 -42
-3 -77 -10 -77 -14 0 -5 -16 -9 -35 -9 -19 0 -35 4 -35 9 0 4 -35 11 -77 15
-43 3 -79 11 -81 16 -2 6 -15 10 -28 10 -13 0 -24 4 -24 9 0 5 -15 12 -33 15
-18 3 -39 15 -47 26 -8 11 -20 20 -26 20 -6 0 -25 12 -42 28 -17 15 -46 41
-66 57 -19 17 -35 36 -35 43 -1 7 -12 23 -26 36 -14 13 -25 28 -25 35 0 6 -4
11 -10 11 -5 0 -12 11 -16 25 -3 14 -10 25 -15 25 -5 0 -9 7 -9 15 0 8 -4 15
-9 15 -5 0 -12 23 -16 50 -4 28 -11 50 -16 50 -5 0 -9 56 -9 125 0 69 4 125 9
125 4 0 11 27 15 60 4 33 11 60 16 60 6 0 10 7 10 15 0 8 4 15 10 15 5 0 12
16 16 35 3 19 10 35 15 35 5 0 9 7 9 15 0 8 4 15 9 15 5 0 13 10 17 23 4 12
15 29 24 37 9 8 20 25 24 38 4 12 12 22 17 22 5 0 9 7 9 15 0 8 5 15 10 15 6
0 10 7 10 15 0 8 -4 15 -10 15 -5 0 -10 9 -10 20 0 11 -4 20 -9 20 -5 0 -12
11 -15 25 -4 16 -11 23 -18 19 -7 -4 -8 -3 -4 4 4 6 -2 19 -14 29 -11 10 -20
25 -20 35 0 9 -9 20 -20 23 -11 3 -20 10 -20 15 0 32 -56 47 -127 33z"/>
<path d="M921 1568 c-18 -5 -55 -31 -82 -57 l-49 -48 0 -71 c0 -61 3 -71 19
-77 11 -3 23 -15 26 -26 4 -10 15 -19 26 -19 22 0 23 -2 20 -165 -3 -116 -10
-142 -36 -128 -5 4 -7 3 -3 -2 8 -8 -28 -45 -44 -45 -5 0 -20 -11 -34 -25 -22
-23 -25 -32 -23 -95 1 -39 4 -68 7 -65 3 2 12 -4 21 -14 9 -10 27 -22 41 -26
14 -4 27 -10 30 -14 21 -25 120 -45 105 -21 -3 6 3 10 14 10 12 0 21 4 21 9 0
5 11 12 24 15 26 6 36 31 36 89 l0 37 96 0 c86 0 96 -2 101 -19 3 -11 16 -22
29 -25 13 -4 24 -11 24 -16 0 -6 7 -10 15 -10 8 0 15 -4 15 -9 0 -5 15 -12 34
-15 19 -4 37 -12 40 -19 3 -9 7 -9 13 -1 4 6 18 14 31 18 12 4 22 12 22 17 0
5 4 9 10 9 17 0 50 34 50 52 0 10 5 18 10 18 14 0 12 93 -3 122 -18 36 -62 76
-91 84 -14 3 -26 10 -26 15 0 5 -9 9 -20 9 -11 0 -20 -4 -20 -10 0 -5 -9 -10
-19 -10 -11 0 -26 -7 -35 -15 -8 -8 -22 -15 -30 -15 -9 0 -18 -11 -22 -25 -3
-14 -10 -22 -15 -19 -5 3 -9 -20 -9 -50 l0 -56 -100 0 c-81 0 -100 3 -100 15
0 8 -18 32 -40 54 l-40 39 0 118 0 118 36 33 c20 18 41 33 46 33 5 0 6 5 2 12
-4 6 -3 8 4 4 6 -3 18 1 26 10 12 11 16 36 16 94 l0 78 -42 44 c-54 55 -83 67
-127 56z"/>
</g>
</svg>
