<?xml version="1.0" standalone="no"?>
<!DOCTYPE svg PUBLIC "-//W3C//DTD SVG 20010904//EN"
 "http://www.w3.org/TR/2001/REC-SVG-20010904/DTD/svg10.dtd">
<svg version="1.0" xmlns="http://www.w3.org/2000/svg"
 width="256.000000pt" height="256.000000pt" viewBox="0 0 256.000000 256.000000"
 preserveAspectRatio="xMidYMid meet">
<metadata>
Created by potrace 1.14, written by Peter Selinger 2001-2017
</metadata>
<g transform="translate(0.000000,256.000000) scale(0.100000,-0.100000)"
fill="#000000" stroke="none">
<path d="M1003 1825 c-33 -23 -110 -154 -139 -236 -35 -98 -43 -253 -20 -354
29 -121 79 -210 170 -300 99 -97 191 -148 315 -172 78 -16 92 -16 179 -1 64
11 118 28 167 52 75 37 145 102 145 134 0 30 -100 112 -138 112 -10 0 -46 -14
-78 -30 -165 -85 -356 -42 -477 106 -68 83 -90 149 -85 249 5 89 24 142 90
242 l40 63 -26 44 c-59 101 -96 124 -143 91z"/>
<path d="M1273 1648 c-34 -24 -43 -44 -43 -95 0 -22 8 -38 27 -53 28 -22 28
-25 24 -145 -1 -35 -7 -44 -41 -68 -33 -23 -40 -34 -40 -62 0 -18 3 -41 6 -50
10 -24 82 -58 110 -51 35 9 64 42 64 71 0 23 3 25 49 25 38 0 61 -8 107 -35
55 -33 59 -34 83 -19 82 51 82 137 0 179 -27 14 -32 14 -68 -4 -40 -21 -51
-37 -51 -77 0 -22 -3 -24 -55 -24 -50 0 -58 3 -85 33 -27 29 -29 38 -30 104
l0 72 40 32 c36 30 40 36 40 80 0 41 -4 51 -35 78 -42 37 -60 38 -102 9z"/>
</g>
</svg>
